<svg xmlns="http://www.w3.org/2000/svg" width="1034.911" height="625.955" viewBox="0 0 1034.911 625.955" xmlns:xlink="http://www.w3.org/1999/xlink" role="img" artist="Katerina Limpitsouni" source="https://undraw.co/">
  <g id="Group_54" data-name="Group 54" transform="translate(-405.088 -214.063)">
    <path id="Path_849-2044" data-name="Path 849" d="M328.074,707.261l15.417-4.891a52.187,52.187,0,0,0-.371-25.107c-6.194,13.772-24.366,17.146-34.72,28.139a31.391,31.391,0,0,0-8.03,26l-3.244,11a52.6,52.6,0,0,0,38.282-21.777,50.81,50.81,0,0,0,5.954-11.271C334.787,708.7,328.074,707.261,328.074,707.261Z" transform="translate(373.178 80.112)" fill="#f2f2f2"/>
    <path id="Path_850-2045" data-name="Path 850" d="M899.945,707.261l-15.417-4.891a52.189,52.189,0,0,1,.372-25.107c6.194,13.772,24.366,17.146,34.72,28.139a31.39,31.39,0,0,1,8.03,26l3.244,11a52.6,52.6,0,0,1-38.282-21.776,50.809,50.809,0,0,1-5.954-11.271C893.231,708.7,899.945,707.261,899.945,707.261Z" transform="translate(284.523 80.112)" fill="#f2f2f2"/>
    <path id="Path_851-2046" data-name="Path 851" d="M311.361,685.826l11.618-11.253a52.187,52.187,0,0,0-11.53-22.306c.6,15.089-14.162,26.214-18.527,40.67a31.391,31.391,0,0,0,4.407,26.849l2,11.3a52.6,52.6,0,0,0,24.553-36.564,50.808,50.808,0,0,0,.3-12.743C318.01,684.117,311.361,685.826,311.361,685.826Z" transform="translate(373.416 81.199)" fill="#f2f2f2"/>
    <g id="Group_51" data-name="Group 51" transform="matrix(0.839, -0.545, 0.545, 0.839, -69.068, 822.476)">
      <path id="Path_900-2047" data-name="Path 900" d="M869,463.359H841.725A6.231,6.231,0,0,1,835.561,458a138.678,138.678,0,0,1,0-37.349,6.231,6.231,0,0,1,6.06-5.355c8.581-3.846,17.823-3.846,27.473,0a6.158,6.158,0,0,1,4.686,2.26,6.3,6.3,0,0,1,1.3,5.252,83.844,83.844,0,0,0,0,33.036,6.3,6.3,0,0,1-1.3,5.252,6.157,6.157,0,0,1-4.78,2.26Z" transform="translate(349.805 91.635)" fill="#3f3d56"/>
      <path id="Path_901-2048" data-name="Path 901" d="M866.482,430.187H843.526a1.435,1.435,0,0,1,0-2.87h22.956a1.435,1.435,0,1,1,0,2.87Z" transform="translate(349.465 90.987)" fill="#fff"/>
      <path id="Path_902-2049" data-name="Path 902" d="M866.482,442.187H843.526a1.435,1.435,0,0,1,0-2.869h22.956a1.435,1.435,0,1,1,0,2.869Z" transform="translate(349.465 90.465)" fill="#fff"/>
      <path id="Path_903-2050" data-name="Path 903" d="M866.482,454.187H843.526a1.435,1.435,0,0,1,0-2.869h22.956a1.435,1.435,0,1,1,0,2.869Z" transform="translate(349.465 89.943)" fill="#fff"/>
    </g>
    <g id="Group_52" data-name="Group 52" transform="translate(-16.789 -41.242)">
      <path id="Path_859-2051" data-name="Path 859" d="M798.08,438.262H415.194A48.612,48.612,0,0,1,366.637,389.7V225.122a48.611,48.611,0,0,1,48.418-48.557c59.464-16.459,122.6-24.6,187.691-24.2,61.934.384,127.692,8.525,195.451,24.2a48.613,48.613,0,0,1,48.44,48.557V389.7A48.612,48.612,0,0,1,798.08,438.262ZM415.194,178.595a46.58,46.58,0,0,0-46.527,46.527V389.7a46.579,46.579,0,0,0,46.527,46.527H798.08A46.579,46.579,0,0,0,844.607,389.7V225.122a46.58,46.58,0,0,0-46.527-46.527l-.229-.026c-140.216-32.446-265.3-32.45-382.387-.01Z" transform="translate(370.152 102.951)" fill="#e6e6e6" style="isolation: isolate"/>
      <path id="Path_860-2052" data-name="Path 860" d="M407.844,394.324a1.149,1.149,0,0,1-1.149-1.149V219.681a1.149,1.149,0,1,1,2.3,0V393.175a1.149,1.149,0,0,1-1.149,1.149Z" transform="translate(370.75 103.936)" fill="#e6e6e6" style="isolation: isolate"/>
      <path id="Path_861-2053" data-name="Path 861" d="M506.844,394.324a1.149,1.149,0,0,1-1.149-1.149V219.681a1.149,1.149,0,0,1,2.3,0V393.175a1.149,1.149,0,0,1-1.149,1.149Z" transform="translate(372.223 103.936)" fill="#e6e6e6" style="isolation: isolate"/>
      <path id="Path_862-2054" data-name="Path 862" d="M605.844,394.324a1.149,1.149,0,0,1-1.149-1.149V219.681a1.149,1.149,0,0,1,2.3,0V393.175a1.149,1.149,0,0,1-1.149,1.149Z" transform="translate(373.698 103.936)" fill="#e6e6e6" style="isolation: isolate"/>
      <path id="Path_863-2055" data-name="Path 863" d="M704.843,394.324a1.149,1.149,0,0,1-1.149-1.149V219.681a1.149,1.149,0,1,1,2.3,0V393.175a1.149,1.149,0,0,1-1.149,1.149Z" transform="translate(375.171 103.936)" fill="#e6e6e6" style="isolation: isolate"/>
      <path id="Path_864-2056" data-name="Path 864" d="M399.009,245.155a1.149,1.149,0,0,1,1.149-1.149H812.151a1.149,1.149,0,1,1,0,2.3H400.158a1.149,1.149,0,0,1-1.149-1.149Z" transform="translate(370.635 104.315)" fill="#e6e6e6" style="isolation: isolate"/>
      <path id="Path_865-2057" data-name="Path 865" d="M399.009,371.155a1.149,1.149,0,0,1,1.149-1.149H812.151a1.149,1.149,0,1,1,0,2.3H400.158a1.149,1.149,0,0,1-1.149-1.149Z" transform="translate(370.635 106.192)" fill="#e6e6e6" style="isolation: isolate"/>
      <path id="Path_866-2058" data-name="Path 866" d="M399.009,308.155a1.149,1.149,0,0,1,1.149-1.149H812.151a1.149,1.149,0,1,1,0,2.3H400.158a1.149,1.149,0,0,1-1.149-1.149Z" transform="translate(370.635 105.253)" fill="#e6e6e6" style="isolation: isolate"/>
      <path id="Path_867-2059" data-name="Path 867" d="M800.686,394.324a1.149,1.149,0,0,0,1.149-1.149V219.681a1.149,1.149,0,0,0-2.3,0V393.175a1.149,1.149,0,0,0,1.149,1.149Z" transform="translate(376.598 103.936)" fill="#e6e6e6" style="isolation: isolate"/>
      <path id="Path_868-2060" data-name="Path 868" d="M470.118,301.261H441.179a6.611,6.611,0,0,1-6.541-5.683,147.146,147.146,0,0,1,0-39.629,6.612,6.612,0,0,1,6.43-5.682c9.105-4.081,18.911-4.081,29.15,0a6.534,6.534,0,0,1,4.972,2.4,6.686,6.686,0,0,1,1.38,5.572,88.966,88.966,0,0,0,0,35.053,6.685,6.685,0,0,1-1.38,5.572,6.533,6.533,0,0,1-5.072,2.4Z" transform="translate(371.145 104.363)" fill="#6c63ff"/>
      <path id="Path_869-2061" data-name="Path 869" d="M466.971,265.154H442.614a1.522,1.522,0,0,1,0-3.045h24.357a1.522,1.522,0,1,1,0,3.045Z" transform="translate(371.262 104.585)" fill="#fff"/>
      <path id="Path_870-2062" data-name="Path 870" d="M466.971,277.154H442.614a1.522,1.522,0,0,1,0-3.045h24.357a1.522,1.522,0,1,1,0,3.045Z" transform="translate(371.262 104.764)" fill="#fff"/>
      <path id="Path_871-2063" data-name="Path 871" d="M466.971,289.154H442.614a1.522,1.522,0,0,1,0-3.045h24.357a1.522,1.522,0,1,1,0,3.045Z" transform="translate(371.262 104.942)" fill="#fff"/>
      <path id="Path_872-2064" data-name="Path 872" d="M675.118,367.261H646.179a6.611,6.611,0,0,1-6.541-5.683,147.135,147.135,0,0,1,0-39.629,6.612,6.612,0,0,1,6.43-5.682c9.105-4.081,18.911-4.081,29.15,0a6.534,6.534,0,0,1,4.972,2.4,6.685,6.685,0,0,1,1.38,5.572,88.964,88.964,0,0,0,0,35.053,6.685,6.685,0,0,1-1.38,5.573A6.533,6.533,0,0,1,675.118,367.261Z" transform="translate(374.197 105.346)" fill="#6c63ff"/>
      <path id="Path_873-2065" data-name="Path 873" d="M671.971,331.154H647.614a1.522,1.522,0,0,1,0-3.045h24.357a1.522,1.522,0,1,1,0,3.045Z" transform="translate(374.314 105.568)" fill="#fff"/>
      <path id="Path_874-2066" data-name="Path 874" d="M671.971,343.154H647.614a1.522,1.522,0,1,1,0-3.045h24.357a1.522,1.522,0,1,1,0,3.045Z" transform="translate(374.314 105.746)" fill="#fff"/>
      <path id="Path_875-2067" data-name="Path 875" d="M762.118,301.261H733.179a6.611,6.611,0,0,1-6.541-5.683,147.14,147.14,0,0,1,0-39.629,6.612,6.612,0,0,1,6.43-5.682c9.105-4.081,18.911-4.081,29.15,0a6.534,6.534,0,0,1,4.972,2.4,6.685,6.685,0,0,1,1.38,5.572,88.964,88.964,0,0,0,0,35.053,6.685,6.685,0,0,1-1.38,5.572A6.533,6.533,0,0,1,762.118,301.261Z" transform="translate(375.493 104.363)" fill="#fd6584"/>
      <path id="Path_876-2068" data-name="Path 876" d="M758.971,277.154H734.614a1.522,1.522,0,0,1,0-3.045h24.357a1.522,1.522,0,1,1,0,3.045Z" transform="translate(375.61 104.764)" fill="#fff"/>
      <path id="Path_877-2069" data-name="Path 877" d="M758.971,289.154H734.614a1.522,1.522,0,0,1,0-3.045h24.357a1.522,1.522,0,0,1,0,3.045Z" transform="translate(375.61 104.942)" fill="#fff"/>
      <circle id="Ellipse_160" data-name="Ellipse 160" cx="19.283" cy="19.283" r="19.283" transform="translate(1105.152 290.666)" fill="#e6e6e6"/>
      <path id="Path_904-2070" data-name="Path 904" d="M758.616,198.284a1.56,1.56,0,0,0-2.153,0,63.876,63.876,0,0,0-10.942,11.177l-2.339-4.526c-.9-1.741-3.528-.2-2.629,1.537l3.421,6.619a1.54,1.54,0,0,0,2.629,0,61.653,61.653,0,0,1,12.013-12.654A1.532,1.532,0,0,0,758.616,198.284Z" transform="translate(375.717 103.628)" fill="#fff"/>
      <circle id="Ellipse_161" data-name="Ellipse 161" cx="19.283" cy="19.283" r="19.283" transform="translate(1010.768 290.666)" fill="#e6e6e6"/>
      <path id="Path_905-2071" data-name="Path 905" d="M665.616,198.284a1.56,1.56,0,0,0-2.153,0,63.875,63.875,0,0,0-10.942,11.177l-2.339-4.526c-.9-1.741-3.528-.2-2.629,1.537l3.421,6.619a1.54,1.54,0,0,0,2.629,0,61.649,61.649,0,0,1,12.013-12.654,1.532,1.532,0,0,0,0-2.153Z" transform="translate(374.332 103.628)" fill="#fff"/>
      <circle id="Ellipse_162" data-name="Ellipse 162" cx="19.283" cy="19.283" r="19.283" transform="translate(811.848 288.636)" fill="#e6e6e6"/>
      <path id="Path_906-2072" data-name="Path 906" d="M469.616,196.284a1.559,1.559,0,0,0-2.153,0,63.87,63.87,0,0,0-10.942,11.177l-2.339-4.526c-.9-1.741-3.528-.2-2.629,1.537l3.421,6.619a1.54,1.54,0,0,0,2.629,0,61.654,61.654,0,0,1,12.013-12.654A1.532,1.532,0,0,0,469.616,196.284Z" transform="translate(371.415 103.598)" fill="#fff"/>
    </g>
    <path id="Path_907-2073" data-name="Path 907" d="M368.536,746.4a1.135,1.135,0,0,1-1.138,1.138H99.3a1.138,1.138,0,1,1,0-2.276H367.4a1.135,1.135,0,0,1,1.138,1.138Z" transform="translate(381.834 77.153)" fill="#ccc"/>
    <path id="Path_908-2074" data-name="Path 908" d="M1089.536,746.4a1.135,1.135,0,0,1-1.138,1.138H820.3a1.138,1.138,0,1,1,0-2.276H1088.4a1.135,1.135,0,0,1,1.138,1.138Z" transform="translate(350.463 77.153)" fill="#ccc"/>
    <g id="Group_53" data-name="Group 53" transform="translate(405.088 357.017)">
      <g id="Group_48" data-name="Group 48" transform="translate(34.563)">
        <path id="Path_934-2075" data-name="Path 934" d="M103.215,179.123l-31.761,5.294L60.867,134.128l25.585-10.587Z" transform="translate(72.236 -107.071)" fill="#090814"/>
        <circle id="Ellipse_166" data-name="Ellipse 166" cx="27.35" cy="27.35" r="27.35" transform="translate(104.429 7.207)" fill="#9f616a"/>
        <path id="Path_935-2076" data-name="Path 935" d="M259.088,301.6s-2.647,33.526,17.645,36.172-17.645,62.64-27.35,61.758-27.35-65.287-27.35-65.287,22.939-15.881,15-30Z" transform="translate(-115.398 -251.608)" fill="#9f616a"/>
        <path id="Path_936-2077" data-name="Path 936" d="M229.093,423.8s-3.529,25.585-14.116,25.585,7.058-29.114,7.058-29.114Z" transform="translate(-51.436 -251.608)" fill="#9f616a"/>
        <path id="Path_937-2078" data-name="Path 937" d="M383.959,449.382S357.491,471.438,361.02,478.5s26.468-7.94,28.232-25.585Z" transform="translate(-360.696 -251.608)" fill="#9f616a"/>
        <path id="Path_938-2079" data-name="Path 938" d="M209.83,534.079l16.763,62.64,18.527,75.874H227.475S221.3,648.772,209.83,636.42c0,0-11.469-19.41-11.469-32.643l-27.35-64.4Z" transform="translate(-26.879 -251.608)" fill="#9f616a"/>
        <path id="Path_939-2080" data-name="Path 939" d="M316.583,537.608l-5.294,59.111s.882,42.348,0,52.053,0,23.821,0,23.821H295.409s-15-52.053-10.587-80.285l-6.176-66.169Z" transform="translate(-205.977 -251.608)" fill="#9f616a"/>
        <path id="Path_940-2081" data-name="Path 940" d="M261.38,375.272s23.77-18.837,17.62-45.15c0,0,23.846,1.037,33.551,10.742s-2.647,42.348-2.647,42.348-21.174,35.29-17.645,51.171,41.466,99.695,29.114,104.988-87.343,23.821-125.28-7.058c0,0-9.7-87.343,29.114-115.575V394.682s-7.058-6.176-3.529-22.056c0,0-15-27.35-6.176-32.643s29.089-13.051,29.089-13.051S242.853,366.45,261.38,375.272Z" transform="translate(-129.601 -251.608)" fill="#090814"/>
        <path id="Path_941-2082" data-name="Path 941" d="M168.191,340.864s11.469-1.764,22.939,15,41.466,43.23,27.35,56.464-52.053,22.056-52.053,22.056L157.6,418.5l37.937-18.527L163.78,376.154Z" transform="translate(9.466 -251.608)" fill="#090814"/>
        <path id="Path_942-2083" data-name="Path 942" d="M362.46,340.864s-12.352,0-17.645,15-36.172,66.169-36.172,66.169L291,449.382,303.349,463.5l34.408-38.819L370.4,370.861Z" transform="translate(-272.147 -251.608)" fill="#090814"/>
        <path id="Path_943-2084" data-name="Path 943" d="M161.892,670.828h24.7l5.294,43.23S206,737,184.831,734.351s-14.116-26.468-14.116-26.468l-5.294-8.823-1.765,18.527-1.764-.882V696.414S152.187,687.591,161.892,670.828Z" transform="translate(35.175 -251.609)" fill="#090814"/>
        <path id="Path_944-2085" data-name="Path 944" d="M276.716,670.828l22.939-1.764,4.411,49.406s2.647,18.527-13.234,15.881-10.587-17.645-10.587-17.645v-27.35Z" transform="translate(-191.696 -251.609)" fill="#090814"/>
        <path id="Path_945-2086" data-name="Path 945" d="M279.644,258.373s12.853,4.284,13.506,21.2a30.011,30.011,0,0,1-.892,8.034c-.724,3.067-1.189,9.667,4.42,18.291a181.076,181.076,0,0,1,10.276,17.677l.04.08-14.116,1.764-3-23.4a116.514,116.514,0,0,0-9.252-32.848l-.1-.218S274.351,280.43,262,280.43l4.411-4.411s-19.41,7.94-26.468,7.94c0,0-5.294,3.529,0,8.823s15.881,17.645,9.7,27.35-.882,12.352-.882,12.352l-9.7-5.294-4.411-2.647v3.529l-22.939-2.647s-6.176-.882,7.058-15.881c0,0,3.495-5.824,1.966-10.848a25.339,25.339,0,0,1-.963-11.85C222.736,270.307,234.368,237.424,279.644,258.373Z" transform="translate(-128.014 -251.608)" fill="#090814"/>
      </g>
      <g id="Group_49" data-name="Group 49" transform="matrix(-0.891, 0.454, -0.454, -0.891, 59.578, 225.888)">
        <path id="Path_883-2087" data-name="Path 883" d="M1.427,2.261a6.3,6.3,0,0,0-1.3,5.252,83.845,83.845,0,0,1,0,33.036,6.3,6.3,0,0,0,1.3,5.252,6.158,6.158,0,0,0,4.686,2.26c9.65,3.846,18.891,3.846,27.472,0a6.231,6.231,0,0,0,6.06-5.355,138.674,138.674,0,0,0,0-37.348A6.231,6.231,0,0,0,33.481,0H6.207a6.158,6.158,0,0,0-4.78,2.261Z" transform="translate(0 0)" fill="#6c63ff"/>
        <path id="Path_884-2088" data-name="Path 884" d="M1.435,0H24.39a1.435,1.435,0,1,1,0,2.869H1.435a1.435,1.435,0,0,1,0-2.87Z" transform="translate(7.63 33.82)" fill="#fff"/>
        <path id="Path_885-2089" data-name="Path 885" d="M1.435,0H24.39a1.435,1.435,0,1,1,0,2.869H1.435A1.435,1.435,0,0,1,1.435,0Z" transform="translate(7.63 22.343)" fill="#fff"/>
        <path id="Path_886-2090" data-name="Path 886" d="M1.435,0H24.39a1.435,1.435,0,1,1,0,2.869H1.435A1.435,1.435,0,1,1,1.435,0Z" transform="translate(7.63 10.865)" fill="#fff"/>
      </g>
    </g>
    <g id="Group_50" data-name="Group 50" transform="translate(-43.174 0.001)">
      <circle id="Ellipse_165" data-name="Ellipse 165" cx="27.127" cy="27.127" r="27.127" transform="translate(1296.112 354.815)" fill="#fbbebe"/>
      <path id="Path_926-2091" data-name="Path 926" d="M799.358,140.18l11.051,27.128L784.288,186.4l-16.076-28.131Z" transform="translate(547.492 242.264)" fill="#fbbebe"/>
      <path id="Path_927-2092" data-name="Path 927" d="M953.7,305.406l10.047-5.024,6.028,14.066s39.184,12.057,36.17,67.316S995.9,458.124,995.9,458.124s17.08,36.17,7.033,40.189-95.448,19.09-97.458,5.024,7.033-96.453,7.033-96.453-3.014-59.278,22.1-71.335L929.591,324.5Z" transform="translate(394.652 97.635)" fill="#e6e6e6"/>
      <path id="Path_931-2093" data-name="Path 931" d="M937.834,283.535a13.317,13.317,0,0,0-.59-2.581c-1.458-3.059-7.147-2.166-8.16-5.4-.2-.633-.157-1.321-.351-1.955-.5-1.617-2.4-2.419-4.087-2.341a22.076,22.076,0,0,0-4.9,1.261c-3.974,1.128-8.2.7-12.311.258a12.387,12.387,0,0,1-5.256-1.368c-1.556-.957-2.677-2.884-2.11-4.62.543-1.665,2.365-2.58,3.184-4.128,1.3-2.458-.289-5.632.766-8.2,1.693-4.127,8.1-3.3,11.354-6.349.79-.74,1.359-1.687,2.116-2.461,2.247-2.3,5.795-2.741,8.991-2.424s6.338,1.256,9.55,1.2c3.046-.054,6.239-.981,9.046.2a12.9,12.9,0,0,1,4.249,3.491l7.2,7.9a8.873,8.873,0,0,1,2.225,3.352c.433,1.513.034,3.137.219,4.7.421,3.564,3.758,6.256,4.208,9.817a12.766,12.766,0,0,1-.159,3.306l-1.008,7.435a5.532,5.532,0,0,1-.568,2.083c-.293.5-.737.9-1.067,1.374-.932,1.348-.847,3.131-1.31,4.7s-2.124,3.128-3.577,2.37c-.948-.494-1.575-4.583-2.727-5.644-1.6-1.478-2.442-1.3-4.422-1.271C944.375,288.286,939.1,288.626,937.834,283.535Z" transform="translate(394.683 97.972)" fill="#090814"/>
      <path id="Path_932-2094" data-name="Path 932" d="M942.583,342.831s30.142,12.057,21.1,39.184-33.156,110.519-33.156,110.519l-14.066,7.033-4.019,11.052-19.09-7.033,3.014-15.071s1-1,1-5.024-4.019-5.024,1-5.024,5.024-5.024,5.024-5.024l18.085-112.529S921.484,341.826,942.583,342.831Z" transform="translate(394.722 97.385)" fill="#e6e6e6"/>
      <path id="Path_923-2095" data-name="Path 923" d="M880.789,534.848l5.023,20.095-22.1,6.028-2.01-21.1Z" transform="translate(546.941 239.939)" fill="#fbbebe"/>
      <path id="Path_924-2096" data-name="Path 924" d="M799.893,560.091v19.09l-22.1,4.019-4.018-10.047,8.037-17.081Z" transform="translate(547.459 239.814)" fill="#fbbebe"/>
      <path id="Path_925-2097" data-name="Path 925" d="M996.921,495.443l-3.014,27.127,2.009,52.245a2.952,2.952,0,0,1,3.014,3.014c0,3.014-3.014,2.01,0,4.019a52.213,52.213,0,0,0,5.024,3.014L1036.1,682.32s-8.038,10.047-23.109,7.033l-3.014-10.047s-6.028-6.028-6.028-9.042,2.009-4.019,0-7.033-32.151-64.3-32.151-64.3l-14.066-25.118-4.019,34.16s8.038,43.2,6.028,63.3-6.028,41.194-6.028,41.194L929.6,708.443a16.776,16.776,0,0,0-3.014-9.043c-3.014-4.019-7.033-3.014-3.014-6.028s9.042,0,5.024-4.019-4.019-8.038-4.019-8.038V678.3l-6.028-77.363L907.5,499.461Z" transform="translate(394.639 96.486)" fill="#090814"/>
      <path id="Path_928-2098" data-name="Path 928" d="M898.322,501.507s-23.109,24.113-10.047,30.142,21.1-27.127,21.1-27.127Z" transform="translate(394.775 96.45)" fill="#fbbebe"/>
      <path id="Path_929-2099" data-name="Path 929" d="M945.6,718.694l11.052-4.019s12.057,27.127,2.009,27.127H932.536s-15.071-5.024-23.109-5.024-23.109-15.071-12.057-22.1,25.118-5.024,25.118-5.024l4.019-9.042,5.024,14.066S937.56,724.722,945.6,718.694Z" transform="translate(394.721 95.277)" fill="#090814"/>
      <path id="Path_930-2100" data-name="Path 930" d="M1027.613,696.531s6.292-3.97,9.677-2.487,5.394,17.558,5.394,17.558,10.047,12.057-12.057,14.066-27.127-2.009-29.137-8.038,2.009-12.057,2.009-12.057l6.028-2.009s7.033-5.024,5.024-7.033,0-6.028,0-6.028S1021.585,704.569,1027.613,696.531Z" transform="translate(394.088 95.337)" fill="#090814"/>
      <path id="Path_933-2101" data-name="Path 933" d="M812.42,243.269l-31.146,106.5L768.212,362.83l7.535-13.564Z" transform="translate(547.492 241.657)" opacity="0.1"/>
    </g>
  </g>
</svg>