<svg xmlns="http://www.w3.org/2000/svg" width="800.604" height="540.622" viewBox="0 0 800.604 540.622" xmlns:xlink="http://www.w3.org/1999/xlink" role="img" artist="Katerina Limpitsouni" source="https://undraw.co/">
  <g id="Group_287" data-name="Group 287" transform="translate(-571.501 -259.359)">
    <path id="Path_1240-726" data-name="Path 1240" d="M0,14.366,23.124,0l6.154,25.631-17.343,6.04C11.232,24.951,7.086,19.232,0,14.366Z" transform="translate(713.669 473.17) rotate(-149)" fill="#ffb9b9"/>
    <path id="Path_1-727" data-name="Path 1" d="M1017.467,271.587l-2.741.356,18.379-68.979a29.776,29.776,0,0,0,.642-14.181,18.719,18.719,0,0,0-5.716-9.991,21.4,21.4,0,0,0-10.765-5,37.038,37.038,0,0,0-14.585.653h0L877.774,202.894a44.108,44.108,0,0,0-12.374,5.091,64.892,64.892,0,0,0-11.585,8.784,70.813,70.813,0,0,0-9.7,11.311,57.657,57.657,0,0,0-6.7,12.8h0L706.727,600.34a74.225,74.225,0,0,0-4.2,18.341,55.657,55.657,0,0,0,.8,16.665,34.239,34.239,0,0,0,5.641,13.243,21.518,21.518,0,0,0,10.351,7.808h0L851.291,701.83a34.36,34.36,0,0,0,18.214,1.085,45.622,45.622,0,0,0,17.849-8.219,63.21,63.21,0,0,0,15.068-16.148,76.146,76.146,0,0,0,9.892-22.255h0l88.478-332.067,2.776-.222Z" transform="translate(337.791 89.819)" fill="#2f2e41"/>
    <path id="Path_1-2-728" data-name="Path 1" d="M1007.467,267.587l-2.741.356,18.379-68.979a29.778,29.778,0,0,0,.643-14.181,18.718,18.718,0,0,0-5.716-9.991,21.4,21.4,0,0,0-10.765-5,37.037,37.037,0,0,0-14.585.653h0L867.774,198.894a44.108,44.108,0,0,0-12.374,5.091,64.893,64.893,0,0,0-11.585,8.784,70.818,70.818,0,0,0-9.7,11.311,57.653,57.653,0,0,0-6.7,12.8h0L696.727,596.34a74.224,74.224,0,0,0-4.2,18.341,55.655,55.655,0,0,0,.8,16.665,34.239,34.239,0,0,0,5.641,13.243,21.517,21.517,0,0,0,10.351,7.808h0L841.291,697.83a34.36,34.36,0,0,0,18.214,1.085,45.621,45.621,0,0,0,17.849-8.219,63.209,63.209,0,0,0,15.068-16.148,76.146,76.146,0,0,0,9.892-22.255h0l88.478-332.067,2.776-.222Z" transform="translate(338.244 90)" fill="#090814"/>
    <path id="Path_2-729" data-name="Path 2" d="M992.012,179.891l-18.361,4.022a10.709,10.709,0,0,1-.463,4.721,19.1,19.1,0,0,1-2.462,5,26.535,26.535,0,0,1-9.293,8.363q-.668.355-1.332.656t-1.327.546q-.661.245-1.313.433t-1.289.317l-71.787,14.536a8.518,8.518,0,0,1-4.043-.046,4.965,4.965,0,0,1-2.673-1.8,5.926,5.926,0,0,1-1.09-3.227,11.379,11.379,0,0,1,.688-4.343q.191-.562.435-1.132t.533-1.14q.286-.573.625-1.14t.715-1.133L865.982,207.5a32.648,32.648,0,0,0-9.3,3.762,48.339,48.339,0,0,0-8.742,6.588,52.885,52.885,0,0,0-7.323,8.528,42.945,42.945,0,0,0-5.027,9.65L705.151,598.609a55.2,55.2,0,0,0-3.1,13.823,41.075,41.075,0,0,0,.7,12.469,25.156,25.156,0,0,0,4.332,9.8,15.963,15.963,0,0,0,7.8,5.666h0L847.828,683.56a25.874,25.874,0,0,0,13.563.608,34.351,34.351,0,0,0,13.185-6.186,47.293,47.293,0,0,0,11.106-11.934,56.8,56.8,0,0,0,7.339-16.4h0l121.468-448.235a22.457,22.457,0,0,0,.551-10.546,14.077,14.077,0,0,0-4.16-7.511,15.858,15.858,0,0,0-7.965-3.839A27.35,27.35,0,0,0,992.012,179.891Z" transform="translate(337.808 89.557)" fill="#fff"/>
    <path id="Path_4939-730" data-name="Path 4939" d="M918.556,355.543H654.1V265.926h264.46Z" transform="translate(339.97 85.63)" fill="#fff"/>
    <rect id="Rectangle_954" data-name="Rectangle 954" width="259.188" height="125.64" transform="translate(922.019 472.802)" fill="#fff"/>
    <circle id="Ellipse_847" data-name="Ellipse 847" cx="18.748" cy="18.748" r="18.748" transform="translate(945.378 495.64)" fill="#6c63ff"/>
    <path id="Path_4940-731" data-name="Path 4940" d="M667.941,423.385a3.125,3.125,0,0,0,0,6.249H815.247a3.125,3.125,0,0,0,0-6.249Z" transform="translate(339.484 78.504)" fill="#e6e6e6"/>
    <path id="Path_4941-732" data-name="Path 4941" d="M667.941,443.022a3.125,3.125,0,0,0-.013,6.249h63.4a3.125,3.125,0,0,0,0-6.249Z" transform="translate(339.485 77.615)" fill="#e6e6e6"/>
    <path id="Path_4942-733" data-name="Path 4942" d="M607.471,474.415c-2.377,0-4.311,1.4-4.311,3.125s1.934,3.125,4.311,3.125H810.708c2.377,0,4.311-1.4,4.311-3.125s-1.934-3.125-4.311-3.125Z" transform="translate(342.275 76.194)" fill="#e6e6e6"/>
    <path id="Path_4943-734" data-name="Path 4943" d="M607.471,494.052c-2.377,0-4.311,1.4-4.311,3.125s1.934,3.125,4.311,3.125H763.926c2.377,0,4.311-1.4,4.311-3.125s-1.934-3.125-4.311-3.125Z" transform="translate(342.275 75.305)" fill="#e6e6e6"/>
    <path id="Path_4944-735" data-name="Path 4944" d="M840.334,521.072H575.874V390.16h264.46ZM581.146,515.8H835.063V395.431H581.146Z" transform="translate(343.51 80.007)" fill="#e6e6e6"/>
    <circle id="Ellipse_848" data-name="Ellipse 848" cx="18.748" cy="18.748" r="18.748" transform="translate(1020.06 377.028)" fill="#6c63ff"/>
    <path id="Path_4945-736" data-name="Path 4945" d="M746.162,299.151a3.125,3.125,0,1,0,0,6.249H893.469a3.125,3.125,0,0,0,0-6.249Z" transform="translate(335.944 84.126)" fill="#e6e6e6"/>
    <path id="Path_4946-737" data-name="Path 4946" d="M746.162,318.788a3.125,3.125,0,1,0-.013,6.249h115.91a3.125,3.125,0,1,0,0-6.249Z" transform="translate(335.945 83.237)" fill="#e6e6e6"/>
    <path id="Path_4947-738" data-name="Path 4947" d="M918.556,355.543H654.1V265.926h264.46Zm-259.188-5.272H913.284V271.2H659.367Z" transform="translate(339.97 85.63)" fill="#e6e6e6"/>
    <path id="Path_4948-739" data-name="Path 4948" d="M239.685,539.4h13.836l6.582-45.276H239.682Z" transform="translate(482.379 245.226)" fill="#ffb6b6"/>
    <path id="Path_4950-740" data-name="Path 4950" d="M100.06,524.087l10.767,5.9L138.782,491.4,122.892,482.7Z" transform="translate(504.63 247.047)" fill="#ffb6b6"/>
    <path id="Path_4952-741" data-name="Path 4952" d="M366.075,647.059a4.308,4.308,0,0,1-4.269-3.754l-14.68-113.12a2.394,2.394,0,0,0-4.47-.848l-61.179,111a4.332,4.332,0,0,1-5.307,1.948L262.836,637.2a4.308,4.308,0,0,1-2.457-5.65l42.38-104.109a3.319,3.319,0,0,0,.216-.825c5.74-44.428,20.345-67.022,24.684-72.888a3.336,3.336,0,0,0,.475-3.038l-.6-1.79a4.306,4.306,0,0,1,.829-4.191c15.636-17.81,42.89-8.091,43.163-7.991l.137.05.086.117c30.559,41.909,19.26,178.03,16.685,204.892a4.3,4.3,0,0,1-3.958,3.877l-18.07,1.391C366.3,647.055,366.186,647.059,366.075,647.059Z" transform="translate(355.44 112.441)" fill="#090814"/>
    <path id="Path_2634-742" data-name="Path 2634" d="M263.266,805.18a22.184,22.184,0,0,1-15.047,5.481c-10.19-.149-29.228-.454-33.648-.642-5.915-.266-3.953-5.426-3.762-8.981v-.352c.069-3.563.766-11.283,1.946-12.489s5.217,5.371,5.217,5.371,7.883,2.349,10.052-4.7,6.573-7.728,6.573-7.728c2-.885,2.1,4.432,2.1,4.432l16.686,8.793,9.791,1.566c.314.149.6.3.866.446C268.468,798.916,266.506,802.315,263.266,805.18Z" transform="translate(508.137 -15.776)" fill="#090814"/>
    <ellipse id="Ellipse_849" data-name="Ellipse 849" cx="25.538" cy="25.538" rx="25.538" ry="25.538" transform="translate(687.106 392.938)" fill="#ffb8b8"/>
    <path id="Path_4953-743" data-name="Path 4953" d="M328.274,454.952l76.867,7c-6.7-23.3-12.842-46.524-7.837-69.66,6.355-20.656,6.946-32.1-9.819-41.826l-11.32-25.252-20.487-.745-9.99-2.738a65.785,65.785,0,0,0-9.337,43.5C340.695,398.164,339.522,428.725,328.274,454.952Z" transform="translate(344.569 130.331)" fill="#6c63ff"/>
    <path id="Path_4955-744" data-name="Path 4955" d="M766.42,561.183H0V559.1H766.769Z" transform="translate(571.501 234.056)" fill="#cbcbcb"/>
    <path id="Path_4956-745" data-name="Path 4956" d="M475.093,443,284.974,577.443l-45.559-64.426L429.534,378.573Z" transform="translate(358.73 121.272)" fill="#fff"/>
    <ellipse id="Ellipse_850" data-name="Ellipse 850" cx="16.507" cy="16.507" rx="16.507" ry="16.507" transform="matrix(0.816, -0.577, 0.577, 0.816, 629.783, 639.386)" fill="#6c63ff"/>
    <path id="Path_4962-746" data-name="Path 4962" d="M52.92,24.137a22.184,22.184,0,0,1-15.047,5.481c-10.19-.149-29.228-.454-33.648-.642C-1.689,28.71.272,23.55.463,20v-.352C.532,16.08,1.23,8.36,2.409,7.154s5.217,5.371,5.217,5.371,7.883,2.349,10.052-4.7S24.252.1,24.252.1c2-.885,2.1,4.432,2.1,4.432l16.686,8.793,9.791,1.566c.314.149.6.3.866.446C58.122,17.873,56.161,21.271,52.92,24.137Z" transform="matrix(0.921, 0.391, -0.391, 0.921, 609.671, 750.726)" fill="#090814"/>
    <path id="Path_4957-747" data-name="Path 4957" d="M333.67,498.1a2.751,2.751,0,0,0,3.177,4.493l105.9-74.886a2.751,2.751,0,1,0-3.177-4.493Z" transform="translate(343.895 114.238)" fill="#e6e6e6"/>
    <path id="Path_4958-748" data-name="Path 4958" d="M345.006,517.157a2.751,2.751,0,1,0,3.168,4.5l.009-.007L431.5,462.731a2.751,2.751,0,0,0-3.177-4.493Z" transform="translate(342.089 108.657)" fill="#e6e6e6"/>
    <path id="Path_4959-749" data-name="Path 4959" d="M475.093,443,284.974,577.443l-45.559-64.426L429.534,378.573ZM286.084,570.973,468.623,441.889l-40.2-56.846L245.885,514.127Z" transform="translate(358.73 121.272)" fill="#e6e6e6"/>
    <path id="Path_4960-750" data-name="Path 4960" d="M392.885,483.878l-12.363-67.585.871-41.8-27.864-.871,5.225,47.021,18.017,65.2a11.775,11.775,0,1,0,16.116-1.971Z" transform="translate(340.544 122.059)" fill="#ffb8b8"/>
    <path id="Path_4961-751" data-name="Path 4961" d="M351.457,369.56a44.033,44.033,0,0,1,31.347,0l-1.742-34.83A13.932,13.932,0,0,0,367.13,320.8h0A13.932,13.932,0,0,0,353.2,334.73Z" transform="translate(340.875 130.479)" fill="#6c63ff"/>
    <path id="Path_4976-752" data-name="Path 4976" d="M436.3,73.588s1.388,10.535,14.253,10.879l26.1.7s-22.06-53.685-12.989-47.637S496.922,18.22,496.922,18.22l7.137,13.386s17.051-6.175-1.846-21.295c0,0-22.547-17.432-46.483-6.964S436.3,73.588,436.3,73.588h0Z" transform="translate(234.463 383.276)" fill="#090814"/>
  </g>
</svg>